<svg width="1200" height="720" viewBox="0 0 1200 720" fill="none" xmlns="http://www.w3.org/2000/svg">
  <defs>
    <linearGradient id="sky" x1="600" y1="0" x2="600" y2="720" gradientUnits="userSpaceOnUse">
      <stop offset="0" stop-color="#FFD6B3"/>
      <stop offset="0.36" stop-color="#FFB28B"/>
      <stop offset="0.64" stop-color="#F49A86"/>
      <stop offset="1" stop-color="#3A4B5F"/>
    </linearGradient>
    <linearGradient id="cityGlow" x1="600" y1="264" x2="600" y2="720" gradientUnits="userSpaceOnUse">
      <stop offset="0" stop-color="#1B2430" stop-opacity="0"/>
      <stop offset="1" stop-color="#1B2430" stop-opacity="1"/>
    </linearGradient>
  </defs>

  <rect width="1200" height="720" fill="url(#sky)"/>
  <ellipse cx="590" cy="220" rx="330" ry="120" fill="#FFE8D2" opacity="0.34"/>
  <ellipse cx="940" cy="128" rx="150" ry="62" fill="#FFF2E8" opacity="0.32"/>

  <g opacity="0.95">
    <rect x="0" y="430" width="70" height="290" fill="#39495C"/>
    <rect x="54" y="382" width="82" height="338" fill="#415264"/>
    <rect x="118" y="446" width="60" height="274" fill="#334355"/>
    <rect x="170" y="350" width="108" height="370" fill="#45576A"/>
    <rect x="256" y="402" width="58" height="318" fill="#324253"/>
    <rect x="302" y="316" width="132" height="404" fill="#506175"/>
    <rect x="404" y="380" width="70" height="340" fill="#3B4B5C"/>
    <rect x="458" y="286" width="138" height="434" fill="#54677C"/>
    <rect x="574" y="336" width="82" height="384" fill="#405162"/>
    <rect x="636" y="248" width="140" height="472" fill="#5A6D82"/>
    <rect x="744" y="396" width="72" height="324" fill="#3B4A5B"/>
    <rect x="798" y="304" width="124" height="416" fill="#4C5F74"/>
    <rect x="892" y="352" width="76" height="368" fill="#3A4A5C"/>
    <rect x="948" y="274" width="126" height="446" fill="#53667C"/>
    <rect x="1038" y="402" width="68" height="318" fill="#37485A"/>
    <rect x="1092" y="332" width="92" height="388" fill="#4B5E73"/>
  </g>

  <g opacity="0.22" fill="#FFF1E6">
    <rect x="188" y="386" width="10" height="16"/>
    <rect x="212" y="386" width="10" height="16"/>
    <rect x="236" y="386" width="10" height="16"/>
    <rect x="320" y="352" width="10" height="16"/>
    <rect x="344" y="352" width="10" height="16"/>
    <rect x="368" y="352" width="10" height="16"/>
    <rect x="492" y="322" width="10" height="16"/>
    <rect x="516" y="322" width="10" height="16"/>
    <rect x="540" y="322" width="10" height="16"/>
    <rect x="664" y="280" width="10" height="16"/>
    <rect x="688" y="280" width="10" height="16"/>
    <rect x="712" y="280" width="10" height="16"/>
    <rect x="824" y="338" width="10" height="16"/>
    <rect x="848" y="338" width="10" height="16"/>
    <rect x="972" y="310" width="10" height="16"/>
    <rect x="996" y="310" width="10" height="16"/>
    <rect x="1120" y="366" width="10" height="16"/>
    <rect x="1144" y="366" width="10" height="16"/>
  </g>

  <rect y="520" width="1200" height="200" fill="url(#cityGlow)"/>

  <text x="600" y="332" text-anchor="middle" fill="white" font-size="126" font-weight="700" font-family="'STKaiti', 'KaiTi', serif" letter-spacing="14">住进成都</text>
</svg>
