<svg width="1600" height="900" viewBox="0 0 1600 900" fill="none" xmlns="http://www.w3.org/2000/svg">
  <defs>
    <linearGradient id="sky" x1="800" y1="0" x2="800" y2="900" gradientUnits="userSpaceOnUse">
      <stop stop-color="#708DA9"/>
      <stop offset="0.46" stop-color="#3C526B"/>
      <stop offset="1" stop-color="#1E3044"/>
    </linearGradient>
    <linearGradient id="water" x1="800" y1="480" x2="800" y2="900" gradientUnits="userSpaceOnUse">
      <stop stop-color="#29445E"/>
      <stop offset="1" stop-color="#132739"/>
    </linearGradient>
  </defs>
  <rect width="1600" height="900" fill="url(#sky)"/>
  <rect y="520" width="1600" height="380" fill="url(#water)"/>
  <g opacity="0.62">
    <rect x="0" y="505" width="1600" height="8" fill="#D59F67"/>
    <rect x="0" y="516" width="1600" height="4" fill="#FFD49F" fill-opacity="0.7"/>
  </g>
  <g opacity="0.9">
    <path d="M0 430C112 450 164 430 244 360C312 299 334 248 368 171C426 212 468 271 512 341C585 457 624 525 768 545L0 545V430Z" fill="#2B1D1B"/>
    <path d="M0 516H1600V620C1498 604 1374 576 1256 572C1018 564 887 642 664 644C450 646 242 586 0 596V516Z" fill="#1F2835"/>
  </g>
  <g opacity="0.78">
    <rect x="1038" y="74" width="142" height="372" rx="18" fill="#687D92"/>
    <rect x="1204" y="32" width="102" height="414" rx="16" fill="#788CA0"/>
    <rect x="1328" y="106" width="96" height="340" rx="16" fill="#617688"/>
    <rect x="1460" y="136" width="80" height="310" rx="16" fill="#576C80"/>
  </g>
  <g opacity="0.86">
    <circle cx="164" cy="240" r="5" fill="#FFD18E"/>
    <circle cx="206" cy="266" r="7" fill="#FFC06C"/>
    <circle cx="268" cy="226" r="6" fill="#FFD18E"/>
    <circle cx="1120" cy="324" r="8" fill="#FFD29B"/>
    <circle cx="1260" cy="354" r="7" fill="#FFD29B"/>
    <circle cx="1386" cy="286" r="8" fill="#FFD29B"/>
  </g>
  <g opacity="0.24">
    <rect x="1056" y="476" width="30" height="210" rx="12" fill="#FFE0B4"/>
    <rect x="1110" y="496" width="46" height="252" rx="14" fill="#FFE0B4"/>
    <rect x="1184" y="470" width="34" height="248" rx="14" fill="#FFE0B4"/>
    <rect x="1242" y="490" width="56" height="282" rx="14" fill="#FFE0B4"/>
    <rect x="1320" y="520" width="40" height="232" rx="14" fill="#FFE0B4"/>
  </g>
  <g opacity="0.3">
    <rect x="250" y="614" width="1200" height="10" rx="5" fill="#DAB786"/>
    <rect x="330" y="652" width="1040" height="14" rx="7" fill="#8DB4D6"/>
    <rect x="420" y="706" width="860" height="12" rx="6" fill="#A5CAE7"/>
  </g>
  <g>
    <rect x="58" y="46" width="196" height="82" rx="24" fill="#FF963E"/>
    <text x="156" y="101" fill="#FFF8EC" text-anchor="middle" font-size="50" font-family="'Microsoft YaHei','PingFang SC',sans-serif" font-weight="800">安家成都</text>
  </g>
  <text x="800" y="318" fill="#FFFFFF" font-size="132" text-anchor="middle" font-family="'Microsoft YaHei','PingFang SC',sans-serif" font-weight="700">安家成都</text>
  <text x="800" y="404" fill="#F2F6FB" font-size="48" text-anchor="middle" font-family="Arial,sans-serif" font-weight="500" letter-spacing="2">Taste Jinjiang</text>
  <text x="800" y="560" fill="#FFFFFF" font-size="160" text-anchor="middle" font-family="'Microsoft YaHei','PingFang SC',sans-serif" font-weight="800">品位锦江</text>
</svg>
